<svg width="80" height="80" viewBox="0 0 80 80" fill="none" xmlns="http://www.w3.org/2000/svg">
<g clip-path="url(#clip0_2033_784)">
<mask id="mask0_2033_784" style="mask-type:luminance" maskUnits="userSpaceOnUse" x="0" y="0" width="81" height="81">
<path d="M80.0002 0H0V80.0003H80.0002V0Z" fill="white"/>
</mask>
<g mask="url(#mask0_2033_784)">
<path fill-rule="evenodd" clip-rule="evenodd" d="M67.5022 68.0003H78.9996C79.5567 68.0003 80.0024 68.4481 80.0024 69.0003V71.7015C80.0024 76.2848 76.2848 80.0004 71.7061 80.0004H8.2929C3.71419 80.0004 -0.00341797 76.2848 -0.00341797 71.7015V69.0003C-0.00341797 68.4481 0.442287 68.0003 0.999431 68.0003H21.9987V55.9514C16.9439 55.4491 13.0033 51.1858 13.0033 46.0002V37.0002C13.0033 36.448 13.449 36.0002 13.996 36.0002H31.9969C32.554 36.0002 32.9997 36.448 32.9997 37.0002V46.0002C32.9997 51.1858 29.049 55.4491 23.9942 55.9514V68.0003H44.4971C41.7823 59.1569 41.4582 50.0336 42.6839 40.7291C42.8967 39.1336 43.7476 37.5391 44.872 35.5169C47.2627 31.1968 50.7979 24.6846 50.3624 10.7057C50.3624 10.6957 50.3624 10.6846 50.3624 10.6746V3.00008C50.3624 2.44786 50.8081 2.00012 51.3652 2.00012H60.6341C61.1912 2.00012 61.6369 2.44786 61.6369 3.00008V10.6746C61.6369 10.6846 61.6369 10.6957 61.6369 10.7057C61.2013 24.6846 64.7367 31.1968 67.1274 35.5169C68.2417 37.5391 69.1026 39.1336 69.3153 40.7291C70.541 50.0336 70.217 59.1569 67.5022 68.0003ZM45.8546 70.0003H2.00228V71.7025C2.00228 75.1803 4.81835 78.0003 8.2929 78.0003H71.7061C75.1806 78.0003 77.9967 75.1804 77.9967 71.7015V70.0003C77.9967 70.0003 66.1245 70.0003 66.1042 70.0003C66.1042 70.0003 45.8647 70.0003 45.8546 70.0003ZM23.0015 54.0003C27.4181 54.0003 31.0042 50.418 31.0042 46.0002V38.0002H14.9989V46.0002C14.9989 50.418 18.5849 54.0003 23.0015 54.0003ZM65.4052 68.0003C68.2112 59.2502 68.5556 50.2125 67.3299 40.9913C67.1476 39.6047 66.3474 38.2413 65.3749 36.4847C62.9133 32.0224 59.2463 25.3157 59.6312 11.0001H52.3782C52.753 25.3157 49.086 32.0224 46.6245 36.4847C45.652 38.2413 44.8517 39.6047 44.6694 40.9913C43.4436 50.2125 43.7881 59.2502 46.5941 68.0003H65.4052ZM52.368 9.00013H59.6312V4.00011H52.368V9.00013ZM64.2504 41.5002V56.0002C64.2504 56.5525 63.7946 57.0003 63.2475 57.0003H48.8631C48.3161 57.0003 47.8603 56.5525 47.8603 56.0002V41.5002C47.8603 40.948 48.3161 40.5002 48.8631 40.5002H63.2475C63.7946 40.5002 64.2504 40.948 64.2504 41.5002ZM62.2447 42.5003H49.866V55.0003H62.2447V42.5003Z" fill="url(#paint0_linear_2033_784)"/>
</g>
</g>
<defs>
<linearGradient id="paint0_linear_2033_784" x1="-6.50388" y1="2.00203" x2="67.9753" y2="81.8913" gradientUnits="userSpaceOnUse">
<stop stop-color="#D504EB"/>
<stop offset="0.485" stop-color="#89DCFF"/>
<stop offset="1" stop-color="#1A44C5"/>
</linearGradient>
<clipPath id="clip0_2033_784">
<rect width="80" height="80" fill="white"/>
</clipPath>
</defs>
</svg>
