<svg width="80" height="80" viewBox="0 0 80 80" fill="none" xmlns="http://www.w3.org/2000/svg">
<g clip-path="url(#clip0_2031_774)">
<mask id="mask0_2031_774" style="mask-type:luminance" maskUnits="userSpaceOnUse" x="0" y="0" width="81" height="81">
<path d="M80.0002 0H0V80.0003H80.0002V0Z" fill="white"/>
</mask>
<g mask="url(#mask0_2031_774)">
<path fill-rule="evenodd" clip-rule="evenodd" d="M9.90072 41.001C9.43623 43.2819 7.41784 45.0018 5.00003 45.0018C2.24114 45.0018 0.000610352 42.7613 0.000610352 40.0013C0.000610352 37.2413 2.24114 35.0008 5.00003 35.0008C7.41784 35.0008 9.43623 36.7207 9.90072 39.0017H16.0008C16.0075 39.0017 16.0143 39.0017 16.021 39.0017C16.2622 33.1316 18.6161 27.8023 22.341 23.7554C22.3353 23.7498 22.3286 23.7442 22.323 23.7375L18.0091 19.4247C16.0681 20.7093 13.4259 20.4973 11.7161 18.7886C9.76497 16.8364 9.76497 13.6679 11.7161 11.7168C13.6671 9.76577 16.8355 9.76577 18.7877 11.7168C20.4964 13.4267 20.7085 16.0689 19.4239 18.0099L23.7367 22.3238C23.7434 22.3294 23.749 22.3362 23.7546 22.3418C27.8015 18.6169 33.1308 16.263 39.0008 16.0218C39.0008 16.0151 39.0008 16.0084 39.0008 16.0016V9.90155C36.7199 9.43706 34.9999 7.41869 34.9999 5.00088C34.9999 2.242 37.2405 0.00146484 40.0005 0.00146484C42.7605 0.00146484 45.001 2.242 45.001 5.00088C45.001 7.41869 43.2811 9.43706 41.0001 9.90155V16.0016C41.0001 16.0084 41.0001 16.0151 41.0001 16.0218C46.8702 16.263 52.1995 18.6169 56.2464 22.3418C56.252 22.3362 56.2576 22.3294 56.2643 22.3238L60.5771 18.0099C59.2925 16.0689 59.5045 13.4267 61.2133 11.7168C63.1655 9.76577 66.3339 9.76577 68.2849 11.7168C70.236 13.6679 70.236 16.8364 68.2849 18.7886C66.5751 20.4973 63.9329 20.7093 61.9919 19.4247L57.678 23.7375C57.6724 23.7442 57.6656 23.7498 57.66 23.7554C61.3849 27.8023 63.7388 33.1316 63.98 39.0017C63.9867 39.0017 63.9935 39.0017 64.0002 39.0017H70.1003C70.5648 36.7207 72.5832 35.0008 75.001 35.0008C77.7599 35.0008 80.0004 37.2413 80.0004 40.0013C80.0004 42.7613 77.7599 45.0018 75.001 45.0018C72.5832 45.0018 70.5648 43.2819 70.1003 41.001H64.0002C63.9935 41.001 63.9867 41.001 63.98 41.001C63.7388 46.871 61.3849 52.2003 57.66 56.2472C57.6656 56.2528 57.6724 56.2584 57.678 56.2651L61.9919 60.5779C63.9329 59.2933 66.5751 59.5053 68.2849 61.214C70.236 63.1662 70.236 66.3347 68.2849 68.2858C66.3339 70.2368 63.1655 70.2368 61.2133 68.2858C59.5045 66.5759 59.2925 63.9337 60.5771 61.9927L56.2643 57.6788C56.2576 57.6732 56.252 57.6664 56.2464 57.6608C52.1995 61.3857 46.8702 63.7396 41.0001 63.9808C41.0001 63.9875 41.0001 63.9943 41.0001 64.001V70.1011C43.2811 70.5656 45.001 72.5839 45.001 75.0017C45.001 77.7606 42.7605 80.0011 40.0005 80.0011C37.2405 80.0011 34.9999 77.7606 34.9999 75.0017C34.9999 72.5839 36.7199 70.5656 39.0008 70.1011V64.001C39.0008 63.9943 39.0008 63.9875 39.0008 63.9808C33.1308 63.7396 27.8015 61.3857 23.7546 57.6608C23.749 57.6664 23.7434 57.6732 23.7367 57.6788L19.4239 61.9927C20.7085 63.9337 20.4964 66.5759 18.7877 68.2858C16.8355 70.2368 13.6671 70.2368 11.7161 68.2858C9.76497 66.3347 9.76497 63.1662 11.7161 61.214C13.4259 59.5053 16.0681 59.2933 18.0091 60.5779L22.323 56.2651C22.3286 56.2584 22.3353 56.2528 22.341 56.2472C18.6161 52.2003 16.2622 46.871 16.021 41.001C16.0143 41.001 16.0075 41.001 16.0008 41.001H9.90072ZM8.00013 40.0013C8.00013 38.3453 6.65603 37.0012 5.00003 37.0012C3.34515 37.0012 1.99993 38.3453 1.99993 40.0013C1.99993 41.6573 3.34515 43.0014 5.00003 43.0014C6.65603 43.0014 8.00013 41.6573 8.00013 40.0013ZM17.3729 17.3737C18.5443 16.2035 18.5443 14.3019 17.3729 13.1317C16.2027 11.9604 14.301 11.9604 13.1308 13.1317C11.9595 14.3019 11.9595 16.2035 13.1308 17.3737C14.301 18.545 16.2027 18.545 17.3729 17.3737ZM40.0005 8.00099C41.6565 8.00099 43.0006 6.65688 43.0006 5.00088C43.0006 3.346 41.6565 2.00077 40.0005 2.00077C38.3445 2.00077 37.0004 3.346 37.0004 5.00088C37.0004 6.65688 38.3445 8.00099 40.0005 8.00099ZM62.6281 17.3737C63.7982 18.545 65.7 18.545 66.8702 17.3737C68.0415 16.2035 68.0415 14.3019 66.8702 13.1317C65.7 11.9604 63.7982 11.9604 62.6281 13.1317C61.4567 14.3019 61.4567 16.2035 62.6281 17.3737ZM72.0009 40.0013C72.0009 41.6573 73.345 43.0014 75.001 43.0014C76.6559 43.0014 78.0011 41.6573 78.0011 40.0013C78.0011 38.3453 76.6559 37.0012 75.001 37.0012C73.345 37.0012 72.0009 38.3453 72.0009 40.0013ZM62.6281 62.6289C61.4567 63.7991 61.4567 65.7007 62.6281 66.8709C63.7982 68.0422 65.7 68.0422 66.8702 66.8709C68.0415 65.7007 68.0415 63.7991 66.8702 62.6289C65.7 61.4576 63.7982 61.4576 62.6281 62.6289ZM40.0005 72.0016C38.3445 72.0016 37.0004 73.3457 37.0004 75.0017C37.0004 76.6566 38.3445 78.0018 40.0005 78.0018C41.6565 78.0018 43.0006 76.6566 43.0006 75.0017C43.0006 73.3457 41.6565 72.0016 40.0005 72.0016ZM17.3729 62.6289C16.2027 61.4576 14.301 61.4576 13.1308 62.6289C11.9595 63.7991 11.9595 65.7007 13.1308 66.8709C14.301 68.0422 16.2027 68.0422 17.3729 66.8709C18.5443 65.7007 18.5443 63.7991 17.3729 62.6289ZM40.0005 18.0009C27.8587 18.0009 18.0001 27.8595 18.0001 40.0013C18.0001 52.1431 27.8587 62.0017 40.0005 62.0017C52.1423 62.0017 62.0009 52.1431 62.0009 40.0013C62.0009 27.8595 52.1423 18.0009 40.0005 18.0009ZM40.0005 23.0015C44.4154 23.0015 48 26.5962 48 31.0246C48 35.4541 44.4154 39.0488 40.0005 39.0488C35.5856 39.0488 32.001 35.4541 32.001 31.0246C32.001 26.5962 35.5856 23.0015 40.0005 23.0015ZM40.0005 25.0008C36.6885 25.0008 34.0003 27.7014 34.0003 31.0246C34.0003 34.3489 36.6885 37.0495 40.0005 37.0495C43.3125 37.0495 46.0007 34.3489 46.0007 31.0246C46.0007 27.7014 43.3125 25.0008 40.0005 25.0008ZM40.0005 41.8582C44.3447 41.8582 48.1885 43.1899 50.576 45.1937C52.3195 46.6556 53.3102 48.4799 53.3102 50.4298C53.3102 52.3798 52.3195 54.2041 50.576 55.666C48.1885 57.6698 44.3447 59.0016 40.0005 59.0016C35.6563 59.0016 31.8125 57.6698 29.425 55.666C27.6814 54.2041 26.6908 52.3798 26.6908 50.4298C26.6908 48.4799 27.6814 46.6556 29.425 45.1937C31.8125 43.1899 35.6563 41.8582 40.0005 41.8582ZM40.0005 43.8586C36.1915 43.8586 32.8032 44.9693 30.7096 46.7251C29.4653 47.7697 28.6912 49.0375 28.6912 50.4298C28.6912 51.8222 29.4653 53.09 30.7096 54.1345C32.8032 55.8904 36.1915 57.0011 40.0005 57.0011C43.8095 57.0011 47.1978 55.8904 49.2914 54.1345C50.5356 53.09 51.3098 51.8222 51.3098 50.4298C51.3098 49.0375 50.5356 47.7697 49.2914 46.7251C47.1978 44.9693 43.8095 43.8586 40.0005 43.8586Z" fill="url(#paint0_linear_2031_774)"/>
</g>
</g>
<defs>
<linearGradient id="paint0_linear_2031_774" x1="-6.49936" y1="0.00341817" x2="70.0003" y2="80.0031" gradientUnits="userSpaceOnUse">
<stop stop-color="#D504EB"/>
<stop offset="0.485" stop-color="#89DCFF"/>
<stop offset="1" stop-color="#1A44C5"/>
</linearGradient>
<clipPath id="clip0_2031_774">
<rect width="80" height="80" fill="white"/>
</clipPath>
</defs>
</svg>
