<svg width="26" height="26" viewBox="0 0 26 26" fill="none" xmlns="http://www.w3.org/2000/svg">
<path fill-rule="evenodd" clip-rule="evenodd" d="M13.0016 26.0006C5.8266 26.0006 0.00158691 20.1755 0.00158691 13.0005C0.00158691 5.82551 5.8266 0.000488281 13.0016 0.000488281C20.1766 0.000488281 26.0017 5.82551 26.0017 13.0005C26.0017 20.1755 20.1766 26.0006 13.0016 26.0006ZM8.49264 2.96549C6.20963 3.9945 4.33959 5.77951 3.20259 8.00051H6.52462C6.96062 6.00851 7.64564 4.2795 8.49264 2.96549ZM2.41657 10.0005C2.14657 10.9545 2.00159 11.9605 2.00159 13.0005C2.00159 14.0405 2.14657 15.0465 2.41657 16.0005H6.18459C6.06559 15.0385 6.00161 14.0345 6.00161 13.0005C6.00161 11.9665 6.06559 10.9625 6.18459 10.0005H2.41657ZM3.20259 18.0005C4.33959 20.2215 6.20963 22.0066 8.49264 23.0356C7.64564 21.7216 6.96062 19.9925 6.52462 18.0005H3.20259ZM17.5106 23.0356C19.7936 22.0066 21.6637 20.2215 22.8007 18.0005H19.4786C19.0426 19.9925 18.3576 21.7216 17.5106 23.0356ZM23.5867 16.0005C23.8567 15.0465 24.0017 14.0405 24.0017 13.0005C24.0017 11.9605 23.8567 10.9545 23.5867 10.0005H19.8187C19.9377 10.9625 20.0016 11.9665 20.0016 13.0005C20.0016 14.0345 19.9377 15.0385 19.8187 16.0005H23.5867ZM22.8007 8.00051C21.6637 5.77951 19.7936 3.9945 17.5106 2.96549C18.3576 4.2795 19.0426 6.00851 19.4786 8.00051H22.8007ZM12.0016 2.23949C11.3726 2.54549 10.7996 3.1265 10.2856 3.8805C9.55561 4.95051 8.96658 6.36351 8.57058 8.00051H12.0016V2.23949ZM8.1976 10.0005C8.06959 10.9565 8.00161 11.9625 8.00161 13.0005C8.00161 14.0385 8.06959 15.0445 8.1976 16.0005H12.0016V10.0005H8.1976ZM8.57058 18.0005C8.96658 19.6375 9.55561 21.0505 10.2856 22.1206C10.7996 22.8746 11.3726 23.4556 12.0016 23.7616V18.0005H8.57058ZM14.0016 23.7616C14.6306 23.4556 15.2036 22.8746 15.7176 22.1206C16.4476 21.0505 17.0367 19.6375 17.4327 18.0005H14.0016V23.7616ZM17.8057 16.0005C17.9337 15.0445 18.0016 14.0385 18.0016 13.0005C18.0016 11.9625 17.9337 10.9565 17.8057 10.0005H14.0016V16.0005H17.8057ZM17.4327 8.00051C17.0367 6.36351 16.4476 4.95051 15.7176 3.8805C15.2036 3.1265 14.6306 2.54549 14.0016 2.23949V8.00051H17.4327Z" fill="white"/>
</svg>
