<svg width="80" height="80" viewBox="0 0 80 80" fill="none" xmlns="http://www.w3.org/2000/svg">
<g clip-path="url(#clip0_2035_794)">
<mask id="mask0_2035_794" style="mask-type:luminance" maskUnits="userSpaceOnUse" x="0" y="0" width="81" height="81">
<path d="M80.0002 0H0V80.0003H80.0002V0Z" fill="white"/>
</mask>
<g mask="url(#mask0_2035_794)">
<path fill-rule="evenodd" clip-rule="evenodd" d="M50.6723 75.9823C47.0883 78.5123 42.7149 79.9994 38.0002 79.9994C31.8669 79.9994 26.3203 77.4864 22.331 73.4364L18.8643 79.4953C18.5976 79.9743 17.9789 80.1414 17.5096 79.8674C17.0296 79.5934 16.8588 78.9824 17.1362 78.5034L20.9229 71.8654C17.8509 68.0804 16.0056 63.2544 16.0056 57.9994C16.0056 51.1734 19.1202 45.0694 24.0056 41.0334C24.0056 41.0214 24.0056 41.0104 24.0056 40.9994V31.9994H22.0002C21.4456 31.9994 20.9976 31.5514 20.9976 30.9994C20.9976 30.4474 21.4456 29.9994 22.0002 29.9994H54.0003C54.5549 29.9994 55.0029 30.4474 55.0029 30.9994C55.0029 31.5514 54.5549 31.9994 54.0003 31.9994H51.9949V35.2054C53.6376 33.5314 55.6963 32.2664 58.0003 31.5804V13.7114L56.0909 9.40539C56.0269 9.27739 56.0056 9.13939 56.0056 8.99939V0.999389C56.0056 0.44739 56.4537 -0.000610352 56.9977 -0.000610352H67.0029C67.5575 -0.000610352 67.9949 0.44739 67.9949 0.999389V8.99939C67.9949 9.13939 67.9737 9.27739 67.9203 9.40539L66.0003 13.7114V31.5804C71.7816 33.3034 75.9949 38.6624 75.9949 44.9994C75.9949 46.2464 75.835 47.4554 75.5257 48.6074C75.5257 48.6094 75.5257 48.6124 75.5257 48.6154C75.3337 49.3364 75.4936 50.1094 75.9843 50.6814C75.9843 50.6864 75.9843 50.6904 75.9949 50.6954C78.5016 53.7804 80.0056 57.7164 80.0056 61.9994C80.0056 71.9334 71.9309 79.9994 62.0003 79.9994C57.7123 79.9994 53.7656 78.4933 50.6723 75.9823ZM59.9949 14.9994V18.9994H64.0056V14.9994H59.9949ZM50.0003 37.7884V31.9994H43.9949V36.8294C45.8829 37.3614 47.6535 38.1364 49.2962 39.1194C49.5096 38.6614 49.7443 38.2174 50.0003 37.7884ZM59.9949 32.9994V36.9994H64.0056V32.9994H59.9949ZM34.0002 36.3624C35.3016 36.1244 36.6349 35.9994 38.0002 35.9994C39.3656 35.9994 40.6989 36.1244 42.0002 36.3624V31.9994H34.0002V36.3624ZM62.0003 50.9994C59.2376 50.9994 56.9977 53.2394 56.9977 55.9994C56.9977 58.7594 59.2376 60.9994 62.0003 60.9994C64.7629 60.9994 67.0029 58.7594 67.0029 55.9994C67.0029 53.2394 64.7629 50.9994 62.0003 50.9994ZM58.0003 33.6834C53.3389 35.3324 50.0003 39.7784 50.0003 44.9994C50.0003 46.0694 50.1389 47.1074 50.3949 48.0984C50.7576 49.4444 50.4482 50.8844 49.5522 51.9534C47.3335 54.7004 46.0003 58.1964 46.0003 61.9994C46.0003 70.8304 53.1683 77.9994 62.0003 77.9994C70.8323 77.9994 78.0003 70.8304 78.0003 61.9994C78.0003 58.1964 76.667 54.7014 74.4483 51.9614C73.5417 50.8884 73.2323 49.4424 73.5949 48.0914C73.8616 47.1054 74.0003 46.0684 74.0003 44.9994C74.0003 39.7784 70.6616 35.3324 66.0003 33.6834V50.2554C67.8136 51.5214 68.9977 53.6224 68.9977 55.9994C68.9977 59.8624 65.8616 62.9994 62.0003 62.9994C58.1389 62.9994 55.0029 59.8624 55.0029 55.9994C55.0029 53.6224 56.1869 51.5214 58.0003 50.2554V33.6834ZM56.0056 68.9994C55.4509 68.9994 55.0029 68.5514 55.0029 67.9994C55.0029 67.4474 55.4509 66.9994 56.0056 66.9994H67.9949C68.5496 66.9994 68.9977 67.4474 68.9977 67.9994C68.9977 68.5514 68.5496 68.9994 67.9949 68.9994H56.0056ZM44.0483 63.2534C44.0163 62.8394 43.9949 62.4214 43.9949 61.9994C43.9949 59.5114 44.5069 57.1394 45.4242 54.9834C44.2295 52.0554 41.3496 49.9904 38.0002 49.9904C33.5842 49.9904 29.9896 53.5794 29.9896 57.9994C29.9896 62.4194 33.5842 66.0083 38.0002 66.0083C40.4109 66.0083 42.5763 64.9414 44.0483 63.2534ZM26.0002 39.5614C27.8349 38.3674 29.8509 37.4384 32.0056 36.8294V31.9994H26.0002V39.5614ZM64.1336 12.9994L66.0003 8.78741V1.99939H58.0003V8.78741L59.8776 12.9994H64.1336ZM59.9949 20.9994V24.9994H64.0056V20.9994H59.9949ZM59.9949 49.2894C60.6349 49.1004 61.3069 48.9994 62.0003 48.9994C62.6936 48.9994 63.3656 49.1004 64.0056 49.2894V44.9994H59.9949V49.2894ZM59.9949 38.9994V42.9994H64.0056V38.9994H59.9949ZM59.9949 26.9994V30.9994H64.0056V26.9994H59.9949ZM48.571 41.0234C45.5096 39.1074 41.8829 37.9994 38.0002 37.9994C26.9602 37.9994 18.0002 46.9614 18.0002 57.9994C18.0002 69.0374 26.9602 77.9994 38.0002 77.9994C42.1282 77.9994 45.9682 76.7464 49.1469 74.6004C46.7895 72.1944 45.1042 69.1284 44.3789 65.7074C42.6509 67.1444 40.4216 68.0083 38.0002 68.0083C32.4749 68.0083 27.9949 63.5234 27.9949 57.9994C27.9949 52.4754 32.4749 47.9904 38.0002 47.9904C41.6162 47.9904 44.7843 49.9084 46.5443 52.7804C46.9816 52.0484 47.4616 51.3504 47.9949 50.6914C48.0056 50.6864 48.0056 50.6804 48.0163 50.6754C48.4963 50.1064 48.6563 49.3364 48.4643 48.6184C48.4643 48.6124 48.4643 48.6064 48.4536 48.6004C48.1656 47.4494 48.0056 46.2434 48.0056 44.9994C48.0056 43.6184 48.1976 42.2844 48.571 41.0234ZM11.0028 20.6864L2.45893 18.3994C1.5736 18.1604 0.816154 17.5774 0.34682 16.7774C-0.111847 15.9784 -0.23979 15.0284 0.00554382 14.1364C0.240211 13.2454 0.826899 12.4844 1.6269 12.0234C2.4269 11.5614 3.3762 11.4364 4.26154 11.6754L22.6616 16.6034C23.5469 16.8424 24.3042 17.4254 24.7735 18.2244C25.2322 19.0244 25.3603 19.9744 25.1149 20.8664C24.8803 21.7574 24.2936 22.5184 23.4936 22.9794C22.6936 23.4414 21.7443 23.5664 20.859 23.3274L12.9976 21.2224V78.9994C12.9976 79.5514 12.5495 79.9994 11.9949 79.9994C11.4509 79.9994 11.0028 79.5514 11.0028 78.9994V20.6864ZM12.2829 18.9584L21.3709 21.3954C21.7549 21.4964 22.1495 21.4434 22.4909 21.2474C22.8322 21.0514 23.0882 20.7274 23.1842 20.3484C23.2909 19.9694 23.2375 19.5644 23.0349 19.2244C22.8429 18.8844 22.5229 18.6364 22.1389 18.5354L3.74956 13.6074C3.36556 13.5054 2.96017 13.5584 2.6295 13.7554C2.28817 13.9514 2.03214 14.2754 1.93614 14.6544C1.82948 15.0334 1.88283 15.4374 2.08549 15.7774C2.27749 16.1174 2.59759 16.3654 2.98159 16.4674C2.98159 16.4674 12.2616 18.9554 12.2829 18.9584Z" fill="url(#paint0_linear_2035_794)"/>
</g>
</g>
<defs>
<linearGradient id="paint0_linear_2035_794" x1="-6.62689" y1="0.00134298" x2="69.8678" y2="80.1182" gradientUnits="userSpaceOnUse">
<stop stop-color="#D504EB"/>
<stop offset="0.485" stop-color="#89DCFF"/>
<stop offset="1" stop-color="#1A44C5"/>
</linearGradient>
<clipPath id="clip0_2035_794">
<rect width="80" height="80" fill="white"/>
</clipPath>
</defs>
</svg>
