<svg width="261" height="37" viewBox="0 0 261 37" fill="none" xmlns="http://www.w3.org/2000/svg"><g clip-path="url(#clip0_2008_496)"><mask id="mask0_2008_496" style="mask-type:luminance" maskUnits="userSpaceOnUse" x="0" y="0" width="261" height="37"><path d="M261 0H0V37H261V0Z" fill="white"/></mask><g mask="url(#mask0_2008_496)"><path fill-rule="evenodd" clip-rule="evenodd" d="M22.8246 1.71729C28.841 4.2922 32.959 9.77374 32.959 16.102C32.959 22.4328 28.8396 27.9143 22.8231 30.4866C16.8081 27.9143 12.6873 22.4328 12.6873 16.102C12.6873 9.77245 16.8081 4.29091 22.8246 1.71729Z" fill="#002CD2"/><path fill-rule="evenodd" clip-rule="evenodd" d="M22.824 1.71659C24.909 0.597569 27.2873 0 29.8028 0C38.5465 0 45.6446 7.21492 45.6446 16.1026C45.6446 24.9889 38.5465 32.2038 29.8028 32.2038C27.2873 32.2038 24.909 31.6075 22.8228 30.4872C28.0809 27.9136 31.6833 22.4321 31.6833 16.1026C31.6833 9.77305 28.0822 4.29151 22.824 1.71659Z" fill="#0099FA"/><path fill-rule="evenodd" clip-rule="evenodd" d="M22.8218 30.4862C20.7355 31.6065 18.356 32.2041 15.8418 32.2041H6.49239L2.28433 36.4814C1.90213 36.8699 1.32692 36.9861 0.826629 36.7757C0.326335 36.5653 0 36.0697 0 35.5186V2.07825C0 0.930828 0.915514 0.000244141 2.04435 0.000244141H15.8926C18.3902 0.00798824 20.752 0.605577 22.8231 1.71686C17.5636 4.29048 13.9612 9.77202 13.9612 16.1015C13.9612 22.4323 17.5636 27.9139 22.8218 30.4862Z" fill="#1A4DDE"/><path fill-rule="evenodd" clip-rule="evenodd" d="M63.6388 5.70996C68.1229 5.70996 71.7581 9.74058 71.7581 14.2151V14.221C71.7581 18.6955 68.1229 22.9043 63.6388 22.9043H60.005V26.6209H55.5254V5.70996H63.6388ZM67.3136 14.2151C67.3136 11.9925 65.6599 9.78876 63.4325 9.78876H60.005V18.8269H63.4325C65.6599 18.8269 67.3136 16.8584 67.3136 14.2195V14.2151ZM81.5662 10.7847C86.0151 10.7847 89.6269 14.3874 89.6269 18.8269C89.6269 23.2665 86.0151 26.8692 81.5662 26.8692C77.1187 26.8692 73.5069 23.2665 73.5069 18.8269C73.5069 14.3874 77.1187 10.7847 81.5662 10.7847ZM81.5662 14.2823C79.3052 14.2823 77.6119 16.318 77.6119 18.8269C77.6119 21.3359 79.3052 23.3716 81.5662 23.3716C83.8287 23.3716 85.4473 21.3359 85.4473 18.8269C85.4473 16.318 83.8287 14.2823 81.5662 14.2823ZM103.741 25.7418C102.536 26.4588 101.128 26.8692 99.6253 26.8692C95.1764 26.8692 91.566 23.2665 91.566 18.8269C91.566 14.3874 95.1764 10.7847 99.6253 10.7847C101.121 10.7847 102.523 11.1922 103.724 11.9019C104.222 12.1925 105.195 12.9446 105.791 13.961L103.119 16.5663C102.41 15.2009 101.146 14.2823 99.6253 14.2823C97.3628 14.2823 95.6974 16.318 95.6974 18.8269C95.6974 21.3359 97.3628 23.3716 99.6253 23.3716C101.146 23.3716 102.41 22.4516 103.119 21.0876L105.788 23.6885C105.191 24.7006 104.221 25.4512 103.724 25.7418H103.741ZM111.948 17.5082L114.118 14.7876L117.771 11.0914H123.063L115.782 18.5407L123.68 26.6209H118.388L113.136 21.2468L112.293 21.9127L112.283 26.6209H108.347V5.70996H112.283V13.1564L111.948 17.5082ZM131.397 26.9407C126.931 26.856 123.338 23.2665 123.338 18.8269C123.338 14.3874 126.95 10.7847 131.397 10.7847C135.846 10.7847 139.458 14.3874 139.458 18.8269C139.458 19.2767 139.42 19.7163 139.349 20.1457H127.323C127.833 22.012 129.536 23.3716 131.453 23.4198C133.261 23.4169 134.763 22.9846 135.96 21.9405L138.354 24.4187C138.221 24.5604 138.085 24.6947 137.943 24.8232C136.314 26.2967 134.081 26.9437 131.397 26.9407ZM135.422 17.5082C134.911 15.6419 133.245 14.221 131.397 14.221C129.549 14.221 127.833 15.6419 127.323 17.5082H135.422ZM153.096 25.2526C152.838 25.4862 152.553 25.6965 152.241 25.882C148.376 28.0156 143.169 27.1101 142.958 21.9405L142.925 20.9343V14.2794H140.381V11.1089H143.03L143.326 5.70996H146.747V11.1089H150.716V14.2794H146.747V21.2147H146.759C146.743 23.9105 148.897 23.6096 150.068 22.8707L150.299 22.6736L153.096 25.2526Z" fill="white" fill-opacity="0.95"/><path fill-rule="evenodd" clip-rule="evenodd" d="M184.689 15.4884H178.336L176.052 26.6587H172.245L174.53 15.4884H171.881L172.564 12.1661H175.213L175.458 11.0357C176.156 7.70465 178.349 5.65283 182.004 5.65283C183.286 5.65283 184.492 5.92739 185.34 6.45312C184.68 7.20082 184.188 8.15006 183.922 9.24095C183.419 8.86856 182.778 8.65681 182.004 8.65681C180.39 8.65681 179.507 9.51842 179.112 11.303L178.929 12.1661H185.374L185.617 11.0357C186.316 7.70465 188.509 5.65283 192.163 5.65283C193.091 5.65283 193.979 5.79741 194.72 6.07488C194.314 6.80214 194.094 7.64331 194.094 8.54582C194.095 8.80284 194.116 9.05401 194.159 9.29935C193.643 8.89045 192.979 8.65681 192.163 8.65681C190.549 8.65681 189.667 9.51842 189.271 11.303L189.088 12.1661H193.535L192.85 15.4884H188.496L186.212 26.6587H182.405L184.689 15.4884ZM252.045 26.9406C247.587 26.8559 244.37 23.2663 244.837 18.8268C245.304 14.3873 249.295 10.7845 253.744 10.7845C258.191 10.7845 261.424 14.3873 260.957 18.8268C260.91 19.2766 260.827 19.7161 260.71 20.1455H248.683C248.998 22.0118 250.558 23.3714 252.469 23.4196C254.28 23.4167 255.827 22.9844 257.132 21.9403L259.266 24.4185C259.119 24.5602 258.968 24.6945 258.814 24.823C257.028 26.2965 254.728 26.9435 252.045 26.9406ZM257.061 17.5081C256.747 15.6417 255.231 14.2208 253.382 14.2208C251.534 14.2208 249.668 15.6417 248.961 17.5081H257.061ZM237.058 14.2792H234.514L235.149 11.1087H237.798L239.176 5.70979H242.597L241.516 11.1087H245.485L244.85 14.2792H240.881L239.491 21.2145H239.503C238.946 23.9103 241.161 23.6095 242.48 22.8705L244.624 25.543L244.017 25.8336C239.725 27.9672 234.732 27.11 235.556 21.9403L235.724 20.9341L237.058 14.2792ZM166.815 26.6616L165.619 21.8439L156.01 21.8614L154.722 23.5657L151.874 21.086L162.015 5.84561H165.943L171.246 26.6616H166.815ZM157.905 18.8049L164.995 18.8107L163.141 10.6998L157.905 18.8049ZM199.769 12.9167L196.977 26.6587H193.171L196.069 12.388C196.794 12.7794 197.663 13.0058 198.64 13.0058C199.032 13.0058 199.409 12.9751 199.769 12.9167ZM198.941 5.68205C200.464 5.68205 201.479 6.67363 201.48 7.89742C201.48 9.51696 200.329 10.64 198.604 10.64C197.08 10.64 196.064 9.58266 196.063 8.32675C196.063 6.83864 197.214 5.68205 198.941 5.68205ZM213.845 12.9167L211.055 26.6587H207.248L210.145 12.388C210.871 12.7794 211.74 13.0058 212.718 13.0058C213.108 13.0058 213.486 12.9751 213.845 12.9167ZM213.017 5.68205C214.54 5.68205 215.556 6.67363 215.556 7.89742C215.557 9.51696 214.407 10.64 212.68 10.64C211.156 10.64 210.14 9.58266 210.139 8.32675C210.139 6.83864 211.291 5.68205 213.017 5.68205ZM200.302 26.6616L204.584 5.68205H208.391L204.109 26.6616H200.302ZM229.665 10.9598H233.404L230.236 26.5609H226.676L227.005 24.9545C225.659 26.1228 223.893 26.7653 221.799 26.7653C217.88 26.7653 214.768 24.2243 214.767 19.9001C214.766 14.5815 218.655 10.7845 223.771 10.7845C226.255 10.7845 228.139 11.6024 229.216 13.2672L229.665 10.9598ZM222.742 23.389C225.914 23.389 227.969 21.2685 227.969 17.8206C227.968 15.3964 226.667 14.1273 223.974 14.1273C220.803 14.1273 218.758 16.2711 218.758 19.7191C218.758 22.1447 220.05 23.389 222.742 23.389Z" fill="url(#paint0_linear_2008_496)"/></g></g><defs><linearGradient id="paint0_linear_2008_496" x1="166.803" y1="19.462" x2="260.525" y2="5.68398" gradientUnits="userSpaceOnUse"><stop stop-color="#0099FA"/><stop offset="0.5" stop-color="#1A4DDE"/><stop offset="1" stop-color="#9605C2"/></linearGradient><clipPath id="clip0_2008_496"><rect width="261" height="37" fill="white"/></clipPath></defs></svg>