<svg xmlns="http://www.w3.org/2000/svg" xmlns:xlink="http://www.w3.org/1999/xlink"><symbol id="dropdown-arrow" viewBox="0 0 26 26"><g fill="none"><path fill-rule="evenodd" clip-rule="evenodd" d="M12.9994 14.0225L17.6876 10.0524C18.0813 9.72092 18.6683 9.76999 18.9952 10.1606C19.3295 10.5519 19.2775 11.1382 18.8912 11.4697L13.6012 15.9474C13.252 16.2406 12.7468 16.2406 12.3976 15.9474L7.10766 11.4697C6.72131 11.1382 6.66929 10.5519 7.00363 10.1606C7.33054 9.76999 7.91749 9.72092 8.31127 10.0524L12.9994 14.0225Z" fill="white"/></g></symbol><symbol id="icon-21" viewBox="0 0 40 40"><g fill="none"><path fill-rule="evenodd" clip-rule="evenodd" d="M33.1543 13.1641C30.6543 8.41406 25.6551 5.16406 19.9551 5.16406C11.8551 5.16406 5.1543 11.8044 5.1543 19.9844C5.1543 28.1544 11.8551 34.7939 19.9551 34.7939C25.5551 34.7939 30.4551 31.7143 32.9551 27.1543L33.0547 26.9844C33.7547 25.8944 35.4543 26.644 34.6543 28.164C31.7543 33.314 26.2551 36.7939 19.9551 36.7939C10.6551 36.7939 3.1543 29.2644 3.1543 19.9844C3.1543 10.6944 10.6551 3.16406 19.9551 3.16406C26.3551 3.16406 31.8539 6.674 34.7539 11.854L34.6543 11.8442C35.4543 13.2942 33.8543 14.0541 33.1543 13.1641ZM18.5547 24.2641C19.0547 24.2641 19.4551 24.6741 19.4551 25.1841C19.4551 25.2141 19.4551 25.2339 19.4551 25.2739C19.4551 25.7739 19.0547 26.1841 18.5547 26.1841C16.8547 26.1841 13.1551 26.1841 11.4551 26.1841C11.1551 26.1841 10.9539 26.084 10.7539 25.894C10.5539 25.704 10.4551 25.4443 10.4551 25.1743C10.4551 25.1443 10.4551 25.1242 10.4551 25.0942C10.4551 24.8242 10.5539 24.5542 10.7539 24.3642C11.8539 23.3442 15.2539 20.0542 15.2539 20.0542C15.8539 19.5242 16.1535 19.0643 16.3535 18.6743C16.5535 18.2843 16.6543 17.9041 16.6543 17.5141C16.6543 16.9441 16.4543 16.5041 16.1543 16.2041C15.7543 15.9041 15.1551 15.7539 14.4551 15.7539C13.4551 15.7539 12.7543 15.9841 12.1543 16.4541C11.7543 16.7441 11.2535 16.7541 10.8535 16.4741C10.8535 16.5041 10.8535 16.5039 10.8535 16.5039C10.6535 16.3039 10.4551 16.0041 10.4551 15.6841C10.4551 15.3641 10.6535 15.064 10.8535 14.874C11.1535 14.664 11.5535 14.4742 11.8535 14.3042C12.6535 13.9542 13.5547 13.7739 14.5547 13.7739C15.9547 13.7739 16.8543 14.0941 17.6543 14.7241C18.3543 15.3441 18.7539 16.2042 18.7539 17.2842C18.7539 17.9542 18.6535 18.5743 18.3535 19.1543C18.0535 19.7443 17.7551 20.4043 16.9551 21.1543L13.6543 24.2641H18.5547ZM23.7539 24.334V15.854H22.1543C21.5543 15.854 21.1543 15.4343 21.1543 14.9043C21.1543 14.3743 21.5543 13.9541 22.1543 13.9541C22.8543 13.9541 23.8543 13.9541 24.6543 13.9541C24.9543 13.9541 25.2551 14.0739 25.4551 14.2939C25.6551 14.5239 25.8535 14.824 25.8535 15.144V24.334H27.2539C27.7539 24.334 28.1543 24.7241 28.1543 25.2041C28.1543 25.2441 28.1543 25.2739 28.1543 25.3139C28.1543 25.7939 27.7539 26.1841 27.2539 26.1841H22.3535C21.8535 26.1841 21.4551 25.7939 21.4551 25.3139C21.4551 25.2739 21.4551 25.2441 21.4551 25.2041C21.4551 24.7241 21.8535 24.334 22.3535 24.334H23.7539ZM33.8535 18.9844H31.5547C31.0547 18.9844 30.5547 19.4244 30.5547 19.9844C30.5547 20.5344 31.0547 20.9844 31.5547 20.9844H33.8535V23.2641C33.8535 23.8141 34.3535 24.2641 34.8535 24.2641C35.4535 24.2641 35.8535 23.8141 35.8535 23.2641V20.9844H38.1543C38.7543 20.9844 39.1543 20.5344 39.1543 19.9844C39.1543 19.4244 38.7543 18.9844 38.1543 18.9844H35.8535V16.7041C35.8535 16.1441 35.4535 15.7041 34.8535 15.7041C34.3535 15.7041 33.8535 16.1441 33.8535 16.7041V18.9844Z" fill="#C3D1F4"/></g></symbol><symbol id="icon-globe" viewBox="0 0 26 26"><g fill="none"><path fill-rule="evenodd" clip-rule="evenodd" d="M13.0016 26.0006C5.8266 26.0006 0.00158691 20.1755 0.00158691 13.0005C0.00158691 5.82551 5.8266 0.000488281 13.0016 0.000488281C20.1766 0.000488281 26.0017 5.82551 26.0017 13.0005C26.0017 20.1755 20.1766 26.0006 13.0016 26.0006ZM8.49264 2.96549C6.20963 3.9945 4.33959 5.77951 3.20259 8.00051H6.52462C6.96062 6.00851 7.64564 4.2795 8.49264 2.96549ZM2.41657 10.0005C2.14657 10.9545 2.00159 11.9605 2.00159 13.0005C2.00159 14.0405 2.14657 15.0465 2.41657 16.0005H6.18459C6.06559 15.0385 6.00161 14.0345 6.00161 13.0005C6.00161 11.9665 6.06559 10.9625 6.18459 10.0005H2.41657ZM3.20259 18.0005C4.33959 20.2215 6.20963 22.0066 8.49264 23.0356C7.64564 21.7216 6.96062 19.9925 6.52462 18.0005H3.20259ZM17.5106 23.0356C19.7936 22.0066 21.6637 20.2215 22.8007 18.0005H19.4786C19.0426 19.9925 18.3576 21.7216 17.5106 23.0356ZM23.5867 16.0005C23.8567 15.0465 24.0017 14.0405 24.0017 13.0005C24.0017 11.9605 23.8567 10.9545 23.5867 10.0005H19.8187C19.9377 10.9625 20.0016 11.9665 20.0016 13.0005C20.0016 14.0345 19.9377 15.0385 19.8187 16.0005H23.5867ZM22.8007 8.00051C21.6637 5.77951 19.7936 3.9945 17.5106 2.96549C18.3576 4.2795 19.0426 6.00851 19.4786 8.00051H22.8007ZM12.0016 2.23949C11.3726 2.54549 10.7996 3.1265 10.2856 3.8805C9.55561 4.95051 8.96658 6.36351 8.57058 8.00051H12.0016V2.23949ZM8.1976 10.0005C8.06959 10.9565 8.00161 11.9625 8.00161 13.0005C8.00161 14.0385 8.06959 15.0445 8.1976 16.0005H12.0016V10.0005H8.1976ZM8.57058 18.0005C8.96658 19.6375 9.55561 21.0505 10.2856 22.1206C10.7996 22.8746 11.3726 23.4556 12.0016 23.7616V18.0005H8.57058ZM14.0016 23.7616C14.6306 23.4556 15.2036 22.8746 15.7176 22.1206C16.4476 21.0505 17.0367 19.6375 17.4327 18.0005H14.0016V23.7616ZM17.8057 16.0005C17.9337 15.0445 18.0016 14.0385 18.0016 13.0005C18.0016 11.9625 17.9337 10.9565 17.8057 10.0005H14.0016V16.0005H17.8057ZM17.4327 8.00051C17.0367 6.36351 16.4476 4.95051 15.7176 3.8805C15.2036 3.1265 14.6306 2.54549 14.0016 2.23949V8.00051H17.4327Z" fill="white"/></g></symbol></svg>