<svg width="299" height="84" viewBox="0 0 299 84" fill="none" xmlns="http://www.w3.org/2000/svg">
<g clip-path="url(#clip0_2019_699)">
<path fill-rule="evenodd" clip-rule="evenodd" d="M51.4852 3.88721C65.0567 9.71495 74.3458 22.1212 74.3458 36.4437C74.3458 50.772 65.0534 63.1783 51.4819 69.0002C37.9136 63.1783 28.6179 50.772 28.6179 36.4437C28.6179 22.1183 37.9136 9.71203 51.4852 3.88721Z" fill="#002CD2"/>
<path fill-rule="evenodd" clip-rule="evenodd" d="M51.4829 3.88463C56.1861 1.35198 61.5509 -0.000488281 67.2251 -0.000488281C86.9487 -0.000488281 102.96 16.3289 102.96 36.4441C102.96 56.5563 86.9487 72.8857 67.2251 72.8857C61.5509 72.8857 56.186 71.5361 51.48 69.0005C63.3411 63.1757 71.4671 50.7695 71.4671 36.4441C71.4671 22.1186 63.344 9.71237 51.4829 3.88463Z" fill="#0099FA"/>
<path fill-rule="evenodd" clip-rule="evenodd" d="M51.4807 68.9984C46.7746 71.534 41.4069 72.8864 35.7356 72.8864H14.6457L5.15337 82.5672C4.29121 83.4465 2.99369 83.7094 1.86516 83.2333C0.736618 82.7571 0.000488281 81.6354 0.000488281 80.388V4.70333C0.000488281 2.10641 2.06566 0.000244141 4.61203 0.000244141H35.8502C41.4842 0.0177712 46.8119 1.37028 51.4836 3.88541C39.6196 9.71023 31.4935 22.1165 31.4935 36.4419C31.4935 50.7703 39.6196 63.1765 51.4807 68.9984Z" fill="#1A4DDE"/>
<path fill-rule="evenodd" clip-rule="evenodd" d="M130.19 -0.00170898C137.43 -0.00170898 143.3 6.52786 143.3 13.7766V13.7861C143.3 21.0348 137.43 27.853 130.19 27.853H124.323V33.8739H117.09V-0.00170898H130.19ZM136.123 13.7766C136.123 10.1759 133.453 6.60592 129.857 6.60592H124.323V21.2477H129.857C133.453 21.2477 136.123 18.0587 136.123 13.7837V13.7766ZM159.136 8.21936C166.319 8.21936 172.151 14.0557 172.151 21.2477C172.151 28.4397 166.319 34.2761 159.136 34.2761C151.955 34.2761 146.123 28.4397 146.123 21.2477C146.123 14.0557 151.955 8.21936 159.136 8.21936ZM159.136 13.8854C155.485 13.8854 152.751 17.1833 152.751 21.2477C152.751 25.3121 155.485 28.61 159.136 28.61C162.789 28.61 165.402 25.3121 165.402 21.2477C165.402 17.1833 162.789 13.8854 159.136 13.8854ZM194.939 32.4497C192.994 33.6113 190.721 34.2761 188.294 34.2761C181.111 34.2761 175.282 28.4397 175.282 21.2477C175.282 14.0557 181.111 8.21936 188.294 8.21936C190.709 8.21936 192.973 8.87945 194.913 10.0292C195.716 10.5 197.288 11.7184 198.249 13.3649L193.935 17.5855C192.791 15.3735 190.749 13.8854 188.294 13.8854C184.641 13.8854 181.952 17.1833 181.952 21.2477C181.952 25.3121 184.641 28.61 188.294 28.61C190.749 28.61 192.791 27.1196 193.935 24.91L198.244 29.1234C197.28 30.7629 195.714 31.9789 194.913 32.4497H194.939ZM208.19 19.1114L211.694 14.704L217.592 8.71619H226.136L214.381 20.784L227.134 33.8739H218.589L210.109 25.1678L208.748 26.2466L208.731 33.8739H202.377V-0.00170898H208.731V12.0614L208.19 19.1114ZM239.593 34.392C232.382 34.2548 226.581 28.4397 226.581 21.2477C226.581 14.0557 232.412 8.21936 239.593 8.21936C246.776 8.21936 252.608 14.0557 252.608 21.2477C252.608 21.9764 252.547 22.6885 252.433 23.384H233.015C233.839 26.4075 236.588 28.61 239.683 28.6881C242.604 28.6834 245.028 27.9831 246.961 26.2916L250.827 30.3063C250.611 30.5358 250.392 30.7534 250.163 30.9616C247.533 33.3487 243.927 34.3967 239.593 34.392ZM246.091 19.1114C245.267 16.088 242.578 13.7861 239.593 13.7861C236.609 13.7861 233.839 16.088 233.015 19.1114H246.091ZM274.628 31.6572C274.212 32.0357 273.752 32.3764 273.248 32.6768C267.008 36.1332 258.601 34.6664 258.26 26.2916L258.206 24.6616V13.8807H254.099V8.74456H258.376L258.853 -0.00170898H264.378V8.74456H270.786V13.8807H264.378V25.1158H264.397C264.371 29.483 267.849 28.9956 269.739 27.7986L270.113 27.4792L274.628 31.6572Z" fill="white"/>
<path fill-rule="evenodd" clip-rule="evenodd" d="M175.398 54.332H165.139L161.457 72.4278H155.311L158.993 54.332H154.716L155.817 48.9498H160.094L160.489 47.1187C161.615 41.7224 165.155 38.3984 171.056 38.3984C173.126 38.3984 175.074 38.8432 176.443 39.6949C175.378 40.9062 174.584 42.4439 174.156 44.2112C173.342 43.6079 172.308 43.2649 171.058 43.2649C168.451 43.2649 167.027 44.6607 166.389 47.5517L166.094 48.9498H176.501L176.894 47.1187C178.02 41.7224 181.56 38.3984 187.461 38.3984C188.959 38.3984 190.392 38.6327 191.589 39.0822C190.934 40.2603 190.579 41.623 190.579 43.0851C190.581 43.5014 190.616 43.9083 190.686 44.3058C189.852 43.6434 188.779 43.2649 187.463 43.2649C184.856 43.2649 183.432 44.6607 182.794 47.5517L182.499 48.9498H189.678L188.575 54.332H181.544L177.862 72.4278H171.716L175.398 54.332ZM284.164 72.8844C276.966 72.7472 271.769 66.9321 272.521 59.7401C273.272 52.5482 279.714 46.7118 286.898 46.7118C294.08 46.7118 299.302 52.5482 298.551 59.7401C298.475 60.4688 298.341 61.1809 298.153 61.8764H278.732C279.241 64.8999 281.762 67.1025 284.847 67.1805C287.771 67.1758 290.268 66.4755 292.376 64.784L295.822 68.7987C295.586 69.0282 295.341 69.2458 295.092 69.454C292.21 71.8411 288.497 72.8891 284.164 72.8844ZM292.259 57.6038C291.75 54.5804 289.301 52.2785 286.317 52.2785C283.332 52.2785 280.319 54.5804 279.179 57.6038H292.259ZM259.958 52.3731H255.85L256.874 47.237H261.151L263.372 38.4907H268.897L267.154 47.237H273.563L272.539 52.3731H266.13L263.89 63.6082H263.909C263.011 67.9754 266.588 67.4881 268.717 66.291L272.18 70.6204L271.2 71.0912C264.272 74.5476 256.209 73.1589 257.536 64.784L257.808 63.154L259.958 52.3731ZM146.543 72.4326L144.608 64.6279L129.093 64.6562L123.666 72.4704L115.575 72.4467L138.78 38.7107H145.123L153.696 72.4326H146.543ZM132.151 59.7046L143.599 59.7141L140.601 46.5746L132.151 59.7046ZM199.746 50.1658L195.246 72.4278H189.099L193.772 49.3094C194.941 49.9434 196.344 50.3102 197.923 50.3102C198.556 50.3102 199.164 50.2605 199.746 50.1658ZM198.404 38.4458C200.864 38.4458 202.504 40.0521 202.505 42.0346C202.507 44.6583 200.649 46.4776 197.863 46.4776C195.403 46.4776 193.762 44.7647 193.76 42.7302C193.759 40.3194 195.616 38.4458 198.404 38.4458ZM222.475 50.1658L217.977 72.4278H211.83L216.5 49.3094C217.672 49.9434 219.076 50.3102 220.654 50.3102C221.285 50.3102 221.895 50.2605 222.475 50.1658ZM221.133 38.4458C223.593 38.4458 225.233 40.0521 225.234 42.0346C225.236 44.6583 223.38 46.4776 220.591 46.4776C218.131 46.4776 216.491 44.7647 216.488 42.7302C216.487 40.3194 218.347 38.4458 221.133 38.4458ZM200.614 72.4326L207.517 38.4458H213.663L206.761 72.4326H200.614ZM248.018 46.9957H254.056L248.948 72.2693H243.201L243.731 69.6669C241.557 71.5596 238.707 72.6005 235.326 72.6005C228.997 72.6005 223.971 68.4841 223.968 61.479C223.963 52.8628 230.239 46.7118 238.501 46.7118C242.511 46.7118 245.554 48.0366 247.295 50.7336L248.018 46.9957ZM236.847 67.1309C241.968 67.1309 245.286 63.6957 245.283 58.1101C245.28 54.1829 243.179 52.127 238.831 52.127C233.71 52.127 230.41 55.6 230.412 61.1856C230.413 65.1152 232.499 67.1309 236.847 67.1309Z" fill="url(#paint0_linear_2019_699)"/>
</g>
<defs>
<linearGradient id="paint0_linear_2019_699" x1="146.519" y1="60.7693" x2="297.858" y2="38.5411" gradientUnits="userSpaceOnUse">
<stop stop-color="#0099FA"/>
<stop offset="0.5" stop-color="#1A4DDE"/>
<stop offset="1" stop-color="#9605C2"/>
</linearGradient>
<clipPath id="clip0_2019_699">
<rect width="299" height="84" fill="white"/>
</clipPath>
</defs>
</svg>
