<svg width="80" height="80" viewBox="0 0 80 80" fill="none" xmlns="http://www.w3.org/2000/svg"><g clip-path="url(#clip0_2030_766)"><path fill-rule="evenodd" clip-rule="evenodd" d="M28.849 73.9883C12.079 71.4933 1.93898 59.6553 0.998979 46.5703C0.138978 34.5383 8.319 29.1993 15.759 23.2963C16.709 19.4373 17.999 15.8814 19.5491 12.9184C22.4091 7.47936 26.219 4.04733 30.449 4.00033C31.989 3.87233 33.0891 4.35933 34.1691 5.03433C35.4191 5.81233 36.6491 6.91233 39.0391 7.00033C40.5591 7.05633 41.139 6.23634 42.119 5.48434C43.399 4.49534 45.139 3.46535 49.009 3.49935C49.029 3.49935 49.049 3.50037 49.069 3.50137C52.499 3.72337 55.589 6.20137 58.119 10.0584C60.399 13.5334 62.259 18.1363 63.599 23.0083C63.769 23.0323 63.939 23.1013 64.089 23.2163C71.539 29.1513 79.799 34.4843 78.939 46.5703C77.999 59.6553 67.859 71.4933 51.089 73.9883C51.079 73.9893 51.079 73.9903 51.069 73.9913C43.669 74.9573 36.279 74.8883 28.879 73.9923C28.869 73.9913 28.859 73.9893 28.849 73.9883ZM15.079 26.3613C8.68894 31.3053 2.26898 36.2274 2.99898 46.4284C3.87898 58.6684 13.439 69.6624 29.119 72.0064L29.149 72.0103C36.359 72.8823 43.5791 72.9513 50.7891 72.0103L50.8091 72.0073C66.4991 69.6663 76.069 58.6714 76.939 46.4284C77.689 35.9514 70.889 31.0433 64.339 25.9603C65.739 32.0433 66.3391 38.2773 65.9991 43.0703C65.6991 47.2453 63.429 50.5023 59.949 52.8703C54.979 56.2533 47.459 57.7963 39.939 57.6223C32.429 57.4473 24.939 55.5674 19.999 52.2204C16.519 49.8624 14.279 46.7754 13.999 43.0744V43.0694C13.619 37.5644 14.029 31.7563 15.079 26.3613ZM63.829 35.0434C63.169 28.3534 61.3391 20.8004 58.5591 14.9514C57.2691 12.2344 55.779 9.88934 54.099 8.19534C52.539 6.63034 50.829 5.62835 48.949 5.49935C45.149 5.47435 43.839 6.65234 42.699 7.58334C41.669 8.41634 40.729 9.06338 38.959 8.99838C36.539 8.90938 35.0791 8.01535 33.7891 7.16635C32.7991 6.52335 31.959 5.87333 30.589 5.99533C30.559 5.99833 30.529 5.99935 30.509 5.99935C26.869 6.02135 23.779 9.17835 21.319 13.8484C18.4289 19.3483 16.519 26.9724 15.999 34.7124C20.659 41.9794 29.959 46.6954 39.399 47.3214C48.8891 47.9504 58.559 44.4234 63.829 35.0434ZM15.869 37.9323C15.839 39.6113 15.879 41.2833 15.999 42.9263C16.229 46.0383 18.189 48.5813 21.119 50.5643C25.789 53.7293 32.889 55.4573 39.989 55.6223C47.059 55.7873 54.149 54.3994 58.829 51.2174C61.779 49.2074 63.7491 46.4714 63.9991 42.9284C64.0991 41.5364 64.1191 40.0194 64.0591 38.4174C58.1691 46.7454 48.6491 49.9383 39.269 49.3173C30.139 48.7123 21.179 44.4803 15.869 37.9323ZM27.999 13.5304C27.979 12.9784 28.419 12.5174 28.969 12.4994C29.519 12.4824 29.979 12.9163 29.999 13.4683C30.279 22.5043 33.399 27.9073 38.209 32.7973C39.579 34.1883 40.1791 35.5133 40.2891 36.7733C40.4691 38.6113 39.5891 40.3673 38.2991 42.0963C37.9691 42.5393 37.349 42.6313 36.899 42.3013C36.459 41.9713 36.369 41.3444 36.699 40.9024C37.659 39.6074 38.4291 38.3363 38.2991 36.9603C38.2191 36.0763 37.7491 35.1764 36.7891 34.2014C31.6391 28.9714 28.299 23.1944 27.999 13.5304ZM48.499 12.9893C48.509 12.4373 48.959 11.9934 49.509 11.9994C50.059 12.0054 50.509 12.4584 50.499 13.0094C50.449 18.1564 48.9391 20.7603 47.3991 23.0393C46.4791 24.4033 45.529 25.6304 44.949 27.3244C44.769 27.8464 44.1991 28.1243 43.6691 27.9453C43.1491 27.7663 42.8791 27.1973 43.0491 26.6743C43.6991 24.8003 44.719 23.4274 45.739 21.9184C47.119 19.8894 48.449 17.5703 48.499 12.9893Z" fill="url(#paint0_linear_2030_766)"/></g><defs><linearGradient id="paint0_linear_2030_766" x1="-5.4062" y1="3.50027" x2="62.1055" y2="80.9162" gradientUnits="userSpaceOnUse"><stop stop-color="#D504EB"/><stop offset="0.485" stop-color="#89DCFF"/><stop offset="1" stop-color="#1A44C5"/></linearGradient><clipPath id="clip0_2030_766"><rect width="80" height="80" fill="white"/></clipPath></defs></svg>