<svg xmlns="http://www.w3.org/2000/svg" xmlns:xlink="http://www.w3.org/1999/xlink"><defs><linearGradient id="paint0_linear_2030_766" x1="-5.4062" y1="3.50027" x2="62.1055" y2="80.9162" gradientUnits="userSpaceOnUse"><stop stop-color="#D504EB"/><stop offset="0.485" stop-color="#89DCFF"/><stop offset="1" stop-color="#1A44C5"/></linearGradient><clipPath id="clip0_2030_766"><rect width="80" height="80" fill="white"/></clipPath><linearGradient id="paint0_linear_2035_794" x1="-6.62689" y1="0.00134298" x2="69.8678" y2="80.1182" gradientUnits="userSpaceOnUse"><stop stop-color="#D504EB"/><stop offset="0.485" stop-color="#89DCFF"/><stop offset="1" stop-color="#1A44C5"/></linearGradient><clipPath id="clip0_2035_794"><rect width="80" height="80" fill="white"/></clipPath><linearGradient id="paint0_linear_2031_774" x1="-6.49936" y1="0.00341817" x2="70.0003" y2="80.0031" gradientUnits="userSpaceOnUse"><stop stop-color="#D504EB"/><stop offset="0.485" stop-color="#89DCFF"/><stop offset="1" stop-color="#1A44C5"/></linearGradient><clipPath id="clip0_2031_774"><rect width="80" height="80" fill="white"/></clipPath><linearGradient id="paint0_linear_2033_784" x1="-6.50388" y1="2.00203" x2="67.9753" y2="81.8913" gradientUnits="userSpaceOnUse"><stop stop-color="#D504EB"/><stop offset="0.485" stop-color="#89DCFF"/><stop offset="1" stop-color="#1A44C5"/></linearGradient><clipPath id="clip0_2033_784"><rect width="80" height="80" fill="white"/></clipPath></defs><symbol id="dropdown-arrow" viewBox="0 0 26 26"><g fill="none"><path fill-rule="evenodd" clip-rule="evenodd" d="M12.9994 14.0225L17.6876 10.0524C18.0813 9.72092 18.6683 9.76999 18.9952 10.1606C19.3295 10.5519 19.2775 11.1382 18.8912 11.4697L13.6012 15.9474C13.252 16.2406 12.7468 16.2406 12.3976 15.9474L7.10766 11.4697C6.72131 11.1382 6.66929 10.5519 7.00363 10.1606C7.33054 9.76999 7.91749 9.72092 8.31127 10.0524L12.9994 14.0225Z" fill="white"/></g></symbol><symbol id="icon-21" viewBox="0 0 40 40"><g fill="none"><path fill-rule="evenodd" clip-rule="evenodd" d="M33.1543 13.1641C30.6543 8.41406 25.6551 5.16406 19.9551 5.16406C11.8551 5.16406 5.1543 11.8044 5.1543 19.9844C5.1543 28.1544 11.8551 34.7939 19.9551 34.7939C25.5551 34.7939 30.4551 31.7143 32.9551 27.1543L33.0547 26.9844C33.7547 25.8944 35.4543 26.644 34.6543 28.164C31.7543 33.314 26.2551 36.7939 19.9551 36.7939C10.6551 36.7939 3.1543 29.2644 3.1543 19.9844C3.1543 10.6944 10.6551 3.16406 19.9551 3.16406C26.3551 3.16406 31.8539 6.674 34.7539 11.854L34.6543 11.8442C35.4543 13.2942 33.8543 14.0541 33.1543 13.1641ZM18.5547 24.2641C19.0547 24.2641 19.4551 24.6741 19.4551 25.1841C19.4551 25.2141 19.4551 25.2339 19.4551 25.2739C19.4551 25.7739 19.0547 26.1841 18.5547 26.1841C16.8547 26.1841 13.1551 26.1841 11.4551 26.1841C11.1551 26.1841 10.9539 26.084 10.7539 25.894C10.5539 25.704 10.4551 25.4443 10.4551 25.1743C10.4551 25.1443 10.4551 25.1242 10.4551 25.0942C10.4551 24.8242 10.5539 24.5542 10.7539 24.3642C11.8539 23.3442 15.2539 20.0542 15.2539 20.0542C15.8539 19.5242 16.1535 19.0643 16.3535 18.6743C16.5535 18.2843 16.6543 17.9041 16.6543 17.5141C16.6543 16.9441 16.4543 16.5041 16.1543 16.2041C15.7543 15.9041 15.1551 15.7539 14.4551 15.7539C13.4551 15.7539 12.7543 15.9841 12.1543 16.4541C11.7543 16.7441 11.2535 16.7541 10.8535 16.4741C10.8535 16.5041 10.8535 16.5039 10.8535 16.5039C10.6535 16.3039 10.4551 16.0041 10.4551 15.6841C10.4551 15.3641 10.6535 15.064 10.8535 14.874C11.1535 14.664 11.5535 14.4742 11.8535 14.3042C12.6535 13.9542 13.5547 13.7739 14.5547 13.7739C15.9547 13.7739 16.8543 14.0941 17.6543 14.7241C18.3543 15.3441 18.7539 16.2042 18.7539 17.2842C18.7539 17.9542 18.6535 18.5743 18.3535 19.1543C18.0535 19.7443 17.7551 20.4043 16.9551 21.1543L13.6543 24.2641H18.5547ZM23.7539 24.334V15.854H22.1543C21.5543 15.854 21.1543 15.4343 21.1543 14.9043C21.1543 14.3743 21.5543 13.9541 22.1543 13.9541C22.8543 13.9541 23.8543 13.9541 24.6543 13.9541C24.9543 13.9541 25.2551 14.0739 25.4551 14.2939C25.6551 14.5239 25.8535 14.824 25.8535 15.144V24.334H27.2539C27.7539 24.334 28.1543 24.7241 28.1543 25.2041C28.1543 25.2441 28.1543 25.2739 28.1543 25.3139C28.1543 25.7939 27.7539 26.1841 27.2539 26.1841H22.3535C21.8535 26.1841 21.4551 25.7939 21.4551 25.3139C21.4551 25.2739 21.4551 25.2441 21.4551 25.2041C21.4551 24.7241 21.8535 24.334 22.3535 24.334H23.7539ZM33.8535 18.9844H31.5547C31.0547 18.9844 30.5547 19.4244 30.5547 19.9844C30.5547 20.5344 31.0547 20.9844 31.5547 20.9844H33.8535V23.2641C33.8535 23.8141 34.3535 24.2641 34.8535 24.2641C35.4535 24.2641 35.8535 23.8141 35.8535 23.2641V20.9844H38.1543C38.7543 20.9844 39.1543 20.5344 39.1543 19.9844C39.1543 19.4244 38.7543 18.9844 38.1543 18.9844H35.8535V16.7041C35.8535 16.1441 35.4535 15.7041 34.8535 15.7041C34.3535 15.7041 33.8535 16.1441 33.8535 16.7041V18.9844Z" fill="#C3D1F4"/></g></symbol><symbol id="icon-globe" viewBox="0 0 26 26"><g fill="none"><path fill-rule="evenodd" clip-rule="evenodd" d="M13.0016 26.0006C5.8266 26.0006 0.00158691 20.1755 0.00158691 13.0005C0.00158691 5.82551 5.8266 0.000488281 13.0016 0.000488281C20.1766 0.000488281 26.0017 5.82551 26.0017 13.0005C26.0017 20.1755 20.1766 26.0006 13.0016 26.0006ZM8.49264 2.96549C6.20963 3.9945 4.33959 5.77951 3.20259 8.00051H6.52462C6.96062 6.00851 7.64564 4.2795 8.49264 2.96549ZM2.41657 10.0005C2.14657 10.9545 2.00159 11.9605 2.00159 13.0005C2.00159 14.0405 2.14657 15.0465 2.41657 16.0005H6.18459C6.06559 15.0385 6.00161 14.0345 6.00161 13.0005C6.00161 11.9665 6.06559 10.9625 6.18459 10.0005H2.41657ZM3.20259 18.0005C4.33959 20.2215 6.20963 22.0066 8.49264 23.0356C7.64564 21.7216 6.96062 19.9925 6.52462 18.0005H3.20259ZM17.5106 23.0356C19.7936 22.0066 21.6637 20.2215 22.8007 18.0005H19.4786C19.0426 19.9925 18.3576 21.7216 17.5106 23.0356ZM23.5867 16.0005C23.8567 15.0465 24.0017 14.0405 24.0017 13.0005C24.0017 11.9605 23.8567 10.9545 23.5867 10.0005H19.8187C19.9377 10.9625 20.0016 11.9665 20.0016 13.0005C20.0016 14.0345 19.9377 15.0385 19.8187 16.0005H23.5867ZM22.8007 8.00051C21.6637 5.77951 19.7936 3.9945 17.5106 2.96549C18.3576 4.2795 19.0426 6.00851 19.4786 8.00051H22.8007ZM12.0016 2.23949C11.3726 2.54549 10.7996 3.1265 10.2856 3.8805C9.55561 4.95051 8.96658 6.36351 8.57058 8.00051H12.0016V2.23949ZM8.1976 10.0005C8.06959 10.9565 8.00161 11.9625 8.00161 13.0005C8.00161 14.0385 8.06959 15.0445 8.1976 16.0005H12.0016V10.0005H8.1976ZM8.57058 18.0005C8.96658 19.6375 9.55561 21.0505 10.2856 22.1206C10.7996 22.8746 11.3726 23.4556 12.0016 23.7616V18.0005H8.57058ZM14.0016 23.7616C14.6306 23.4556 15.2036 22.8746 15.7176 22.1206C16.4476 21.0505 17.0367 19.6375 17.4327 18.0005H14.0016V23.7616ZM17.8057 16.0005C17.9337 15.0445 18.0016 14.0385 18.0016 13.0005C18.0016 11.9625 17.9337 10.9565 17.8057 10.0005H14.0016V16.0005H17.8057ZM17.4327 8.00051C17.0367 6.36351 16.4476 4.95051 15.7176 3.8805C15.2036 3.1265 14.6306 2.54549 14.0016 2.23949V8.00051H17.4327Z" fill="white"/></g></symbol><symbol id="icon-hat" viewBox="0 0 80 80"><g fill="none"><g clip-path="url(#clip0_2030_766)"><path fill-rule="evenodd" clip-rule="evenodd" d="M28.849 73.9883C12.079 71.4933 1.93898 59.6553 0.998979 46.5703C0.138978 34.5383 8.319 29.1993 15.759 23.2963C16.709 19.4373 17.999 15.8814 19.5491 12.9184C22.4091 7.47936 26.219 4.04733 30.449 4.00033C31.989 3.87233 33.0891 4.35933 34.1691 5.03433C35.4191 5.81233 36.6491 6.91233 39.0391 7.00033C40.5591 7.05633 41.139 6.23634 42.119 5.48434C43.399 4.49534 45.139 3.46535 49.009 3.49935C49.029 3.49935 49.049 3.50037 49.069 3.50137C52.499 3.72337 55.589 6.20137 58.119 10.0584C60.399 13.5334 62.259 18.1363 63.599 23.0083C63.769 23.0323 63.939 23.1013 64.089 23.2163C71.539 29.1513 79.799 34.4843 78.939 46.5703C77.999 59.6553 67.859 71.4933 51.089 73.9883C51.079 73.9893 51.079 73.9903 51.069 73.9913C43.669 74.9573 36.279 74.8883 28.879 73.9923C28.869 73.9913 28.859 73.9893 28.849 73.9883ZM15.079 26.3613C8.68894 31.3053 2.26898 36.2274 2.99898 46.4284C3.87898 58.6684 13.439 69.6624 29.119 72.0064L29.149 72.0103C36.359 72.8823 43.5791 72.9513 50.7891 72.0103L50.8091 72.0073C66.4991 69.6663 76.069 58.6714 76.939 46.4284C77.689 35.9514 70.889 31.0433 64.339 25.9603C65.739 32.0433 66.3391 38.2773 65.9991 43.0703C65.6991 47.2453 63.429 50.5023 59.949 52.8703C54.979 56.2533 47.459 57.7963 39.939 57.6223C32.429 57.4473 24.939 55.5674 19.999 52.2204C16.519 49.8624 14.279 46.7754 13.999 43.0744V43.0694C13.619 37.5644 14.029 31.7563 15.079 26.3613ZM63.829 35.0434C63.169 28.3534 61.3391 20.8004 58.5591 14.9514C57.2691 12.2344 55.779 9.88934 54.099 8.19534C52.539 6.63034 50.829 5.62835 48.949 5.49935C45.149 5.47435 43.839 6.65234 42.699 7.58334C41.669 8.41634 40.729 9.06338 38.959 8.99838C36.539 8.90938 35.0791 8.01535 33.7891 7.16635C32.7991 6.52335 31.959 5.87333 30.589 5.99533C30.559 5.99833 30.529 5.99935 30.509 5.99935C26.869 6.02135 23.779 9.17835 21.319 13.8484C18.4289 19.3483 16.519 26.9724 15.999 34.7124C20.659 41.9794 29.959 46.6954 39.399 47.3214C48.8891 47.9504 58.559 44.4234 63.829 35.0434ZM15.869 37.9323C15.839 39.6113 15.879 41.2833 15.999 42.9263C16.229 46.0383 18.189 48.5813 21.119 50.5643C25.789 53.7293 32.889 55.4573 39.989 55.6223C47.059 55.7873 54.149 54.3994 58.829 51.2174C61.779 49.2074 63.7491 46.4714 63.9991 42.9284C64.0991 41.5364 64.1191 40.0194 64.0591 38.4174C58.1691 46.7454 48.6491 49.9383 39.269 49.3173C30.139 48.7123 21.179 44.4803 15.869 37.9323ZM27.999 13.5304C27.979 12.9784 28.419 12.5174 28.969 12.4994C29.519 12.4824 29.979 12.9163 29.999 13.4683C30.279 22.5043 33.399 27.9073 38.209 32.7973C39.579 34.1883 40.1791 35.5133 40.2891 36.7733C40.4691 38.6113 39.5891 40.3673 38.2991 42.0963C37.9691 42.5393 37.349 42.6313 36.899 42.3013C36.459 41.9713 36.369 41.3444 36.699 40.9024C37.659 39.6074 38.4291 38.3363 38.2991 36.9603C38.2191 36.0763 37.7491 35.1764 36.7891 34.2014C31.6391 28.9714 28.299 23.1944 27.999 13.5304ZM48.499 12.9893C48.509 12.4373 48.959 11.9934 49.509 11.9994C50.059 12.0054 50.509 12.4584 50.499 13.0094C50.449 18.1564 48.9391 20.7603 47.3991 23.0393C46.4791 24.4033 45.529 25.6304 44.949 27.3244C44.769 27.8464 44.1991 28.1243 43.6691 27.9453C43.1491 27.7663 42.8791 27.1973 43.0491 26.6743C43.6991 24.8003 44.719 23.4274 45.739 21.9184C47.119 19.8894 48.449 17.5703 48.499 12.9893Z" fill="url(#paint0_linear_2030_766)"/></g></g></symbol><symbol id="icon-music" viewBox="0 0 80 80"><g fill="none"><g clip-path="url(#clip0_2035_794)"><mask id="mask0_2035_794" style="mask-type:luminance" maskUnits="userSpaceOnUse" x="0" y="0" width="81" height="81"><path d="M80.0002 0H0V80.0003H80.0002V0Z" fill="white"/></mask><g mask="url(#mask0_2035_794)"><path fill-rule="evenodd" clip-rule="evenodd" d="M50.6723 75.9823C47.0883 78.5123 42.7149 79.9994 38.0002 79.9994C31.8669 79.9994 26.3203 77.4864 22.331 73.4364L18.8643 79.4953C18.5976 79.9743 17.9789 80.1414 17.5096 79.8674C17.0296 79.5934 16.8588 78.9824 17.1362 78.5034L20.9229 71.8654C17.8509 68.0804 16.0056 63.2544 16.0056 57.9994C16.0056 51.1734 19.1202 45.0694 24.0056 41.0334C24.0056 41.0214 24.0056 41.0104 24.0056 40.9994V31.9994H22.0002C21.4456 31.9994 20.9976 31.5514 20.9976 30.9994C20.9976 30.4474 21.4456 29.9994 22.0002 29.9994H54.0003C54.5549 29.9994 55.0029 30.4474 55.0029 30.9994C55.0029 31.5514 54.5549 31.9994 54.0003 31.9994H51.9949V35.2054C53.6376 33.5314 55.6963 32.2664 58.0003 31.5804V13.7114L56.0909 9.40539C56.0269 9.27739 56.0056 9.13939 56.0056 8.99939V0.999389C56.0056 0.44739 56.4537 -0.000610352 56.9977 -0.000610352H67.0029C67.5575 -0.000610352 67.9949 0.44739 67.9949 0.999389V8.99939C67.9949 9.13939 67.9737 9.27739 67.9203 9.40539L66.0003 13.7114V31.5804C71.7816 33.3034 75.9949 38.6624 75.9949 44.9994C75.9949 46.2464 75.835 47.4554 75.5257 48.6074C75.5257 48.6094 75.5257 48.6124 75.5257 48.6154C75.3337 49.3364 75.4936 50.1094 75.9843 50.6814C75.9843 50.6864 75.9843 50.6904 75.9949 50.6954C78.5016 53.7804 80.0056 57.7164 80.0056 61.9994C80.0056 71.9334 71.9309 79.9994 62.0003 79.9994C57.7123 79.9994 53.7656 78.4933 50.6723 75.9823ZM59.9949 14.9994V18.9994H64.0056V14.9994H59.9949ZM50.0003 37.7884V31.9994H43.9949V36.8294C45.8829 37.3614 47.6535 38.1364 49.2962 39.1194C49.5096 38.6614 49.7443 38.2174 50.0003 37.7884ZM59.9949 32.9994V36.9994H64.0056V32.9994H59.9949ZM34.0002 36.3624C35.3016 36.1244 36.6349 35.9994 38.0002 35.9994C39.3656 35.9994 40.6989 36.1244 42.0002 36.3624V31.9994H34.0002V36.3624ZM62.0003 50.9994C59.2376 50.9994 56.9977 53.2394 56.9977 55.9994C56.9977 58.7594 59.2376 60.9994 62.0003 60.9994C64.7629 60.9994 67.0029 58.7594 67.0029 55.9994C67.0029 53.2394 64.7629 50.9994 62.0003 50.9994ZM58.0003 33.6834C53.3389 35.3324 50.0003 39.7784 50.0003 44.9994C50.0003 46.0694 50.1389 47.1074 50.3949 48.0984C50.7576 49.4444 50.4482 50.8844 49.5522 51.9534C47.3335 54.7004 46.0003 58.1964 46.0003 61.9994C46.0003 70.8304 53.1683 77.9994 62.0003 77.9994C70.8323 77.9994 78.0003 70.8304 78.0003 61.9994C78.0003 58.1964 76.667 54.7014 74.4483 51.9614C73.5417 50.8884 73.2323 49.4424 73.5949 48.0914C73.8616 47.1054 74.0003 46.0684 74.0003 44.9994C74.0003 39.7784 70.6616 35.3324 66.0003 33.6834V50.2554C67.8136 51.5214 68.9977 53.6224 68.9977 55.9994C68.9977 59.8624 65.8616 62.9994 62.0003 62.9994C58.1389 62.9994 55.0029 59.8624 55.0029 55.9994C55.0029 53.6224 56.1869 51.5214 58.0003 50.2554V33.6834ZM56.0056 68.9994C55.4509 68.9994 55.0029 68.5514 55.0029 67.9994C55.0029 67.4474 55.4509 66.9994 56.0056 66.9994H67.9949C68.5496 66.9994 68.9977 67.4474 68.9977 67.9994C68.9977 68.5514 68.5496 68.9994 67.9949 68.9994H56.0056ZM44.0483 63.2534C44.0163 62.8394 43.9949 62.4214 43.9949 61.9994C43.9949 59.5114 44.5069 57.1394 45.4242 54.9834C44.2295 52.0554 41.3496 49.9904 38.0002 49.9904C33.5842 49.9904 29.9896 53.5794 29.9896 57.9994C29.9896 62.4194 33.5842 66.0083 38.0002 66.0083C40.4109 66.0083 42.5763 64.9414 44.0483 63.2534ZM26.0002 39.5614C27.8349 38.3674 29.8509 37.4384 32.0056 36.8294V31.9994H26.0002V39.5614ZM64.1336 12.9994L66.0003 8.78741V1.99939H58.0003V8.78741L59.8776 12.9994H64.1336ZM59.9949 20.9994V24.9994H64.0056V20.9994H59.9949ZM59.9949 49.2894C60.6349 49.1004 61.3069 48.9994 62.0003 48.9994C62.6936 48.9994 63.3656 49.1004 64.0056 49.2894V44.9994H59.9949V49.2894ZM59.9949 38.9994V42.9994H64.0056V38.9994H59.9949ZM59.9949 26.9994V30.9994H64.0056V26.9994H59.9949ZM48.571 41.0234C45.5096 39.1074 41.8829 37.9994 38.0002 37.9994C26.9602 37.9994 18.0002 46.9614 18.0002 57.9994C18.0002 69.0374 26.9602 77.9994 38.0002 77.9994C42.1282 77.9994 45.9682 76.7464 49.1469 74.6004C46.7895 72.1944 45.1042 69.1284 44.3789 65.7074C42.6509 67.1444 40.4216 68.0083 38.0002 68.0083C32.4749 68.0083 27.9949 63.5234 27.9949 57.9994C27.9949 52.4754 32.4749 47.9904 38.0002 47.9904C41.6162 47.9904 44.7843 49.9084 46.5443 52.7804C46.9816 52.0484 47.4616 51.3504 47.9949 50.6914C48.0056 50.6864 48.0056 50.6804 48.0163 50.6754C48.4963 50.1064 48.6563 49.3364 48.4643 48.6184C48.4643 48.6124 48.4643 48.6064 48.4536 48.6004C48.1656 47.4494 48.0056 46.2434 48.0056 44.9994C48.0056 43.6184 48.1976 42.2844 48.571 41.0234ZM11.0028 20.6864L2.45893 18.3994C1.5736 18.1604 0.816154 17.5774 0.34682 16.7774C-0.111847 15.9784 -0.23979 15.0284 0.00554382 14.1364C0.240211 13.2454 0.826899 12.4844 1.6269 12.0234C2.4269 11.5614 3.3762 11.4364 4.26154 11.6754L22.6616 16.6034C23.5469 16.8424 24.3042 17.4254 24.7735 18.2244C25.2322 19.0244 25.3603 19.9744 25.1149 20.8664C24.8803 21.7574 24.2936 22.5184 23.4936 22.9794C22.6936 23.4414 21.7443 23.5664 20.859 23.3274L12.9976 21.2224V78.9994C12.9976 79.5514 12.5495 79.9994 11.9949 79.9994C11.4509 79.9994 11.0028 79.5514 11.0028 78.9994V20.6864ZM12.2829 18.9584L21.3709 21.3954C21.7549 21.4964 22.1495 21.4434 22.4909 21.2474C22.8322 21.0514 23.0882 20.7274 23.1842 20.3484C23.2909 19.9694 23.2375 19.5644 23.0349 19.2244C22.8429 18.8844 22.5229 18.6364 22.1389 18.5354L3.74956 13.6074C3.36556 13.5054 2.96017 13.5584 2.6295 13.7554C2.28817 13.9514 2.03214 14.2754 1.93614 14.6544C1.82948 15.0334 1.88283 15.4374 2.08549 15.7774C2.27749 16.1174 2.59759 16.3654 2.98159 16.4674C2.98159 16.4674 12.2616 18.9554 12.2829 18.9584Z" fill="url(#paint0_linear_2035_794)"/></g></g></g></symbol><symbol id="icon-networking" viewBox="0 0 80 80"><g fill="none"><g clip-path="url(#clip0_2031_774)"><mask id="mask0_2031_774" style="mask-type:luminance" maskUnits="userSpaceOnUse" x="0" y="0" width="81" height="81"><path d="M80.0002 0H0V80.0003H80.0002V0Z" fill="white"/></mask><g mask="url(#mask0_2031_774)"><path fill-rule="evenodd" clip-rule="evenodd" d="M9.90072 41.001C9.43623 43.2819 7.41784 45.0018 5.00003 45.0018C2.24114 45.0018 0.000610352 42.7613 0.000610352 40.0013C0.000610352 37.2413 2.24114 35.0008 5.00003 35.0008C7.41784 35.0008 9.43623 36.7207 9.90072 39.0017H16.0008C16.0075 39.0017 16.0143 39.0017 16.021 39.0017C16.2622 33.1316 18.6161 27.8023 22.341 23.7554C22.3353 23.7498 22.3286 23.7442 22.323 23.7375L18.0091 19.4247C16.0681 20.7093 13.4259 20.4973 11.7161 18.7886C9.76497 16.8364 9.76497 13.6679 11.7161 11.7168C13.6671 9.76577 16.8355 9.76577 18.7877 11.7168C20.4964 13.4267 20.7085 16.0689 19.4239 18.0099L23.7367 22.3238C23.7434 22.3294 23.749 22.3362 23.7546 22.3418C27.8015 18.6169 33.1308 16.263 39.0008 16.0218C39.0008 16.0151 39.0008 16.0084 39.0008 16.0016V9.90155C36.7199 9.43706 34.9999 7.41869 34.9999 5.00088C34.9999 2.242 37.2405 0.00146484 40.0005 0.00146484C42.7605 0.00146484 45.001 2.242 45.001 5.00088C45.001 7.41869 43.2811 9.43706 41.0001 9.90155V16.0016C41.0001 16.0084 41.0001 16.0151 41.0001 16.0218C46.8702 16.263 52.1995 18.6169 56.2464 22.3418C56.252 22.3362 56.2576 22.3294 56.2643 22.3238L60.5771 18.0099C59.2925 16.0689 59.5045 13.4267 61.2133 11.7168C63.1655 9.76577 66.3339 9.76577 68.2849 11.7168C70.236 13.6679 70.236 16.8364 68.2849 18.7886C66.5751 20.4973 63.9329 20.7093 61.9919 19.4247L57.678 23.7375C57.6724 23.7442 57.6656 23.7498 57.66 23.7554C61.3849 27.8023 63.7388 33.1316 63.98 39.0017C63.9867 39.0017 63.9935 39.0017 64.0002 39.0017H70.1003C70.5648 36.7207 72.5832 35.0008 75.001 35.0008C77.7599 35.0008 80.0004 37.2413 80.0004 40.0013C80.0004 42.7613 77.7599 45.0018 75.001 45.0018C72.5832 45.0018 70.5648 43.2819 70.1003 41.001H64.0002C63.9935 41.001 63.9867 41.001 63.98 41.001C63.7388 46.871 61.3849 52.2003 57.66 56.2472C57.6656 56.2528 57.6724 56.2584 57.678 56.2651L61.9919 60.5779C63.9329 59.2933 66.5751 59.5053 68.2849 61.214C70.236 63.1662 70.236 66.3347 68.2849 68.2858C66.3339 70.2368 63.1655 70.2368 61.2133 68.2858C59.5045 66.5759 59.2925 63.9337 60.5771 61.9927L56.2643 57.6788C56.2576 57.6732 56.252 57.6664 56.2464 57.6608C52.1995 61.3857 46.8702 63.7396 41.0001 63.9808C41.0001 63.9875 41.0001 63.9943 41.0001 64.001V70.1011C43.2811 70.5656 45.001 72.5839 45.001 75.0017C45.001 77.7606 42.7605 80.0011 40.0005 80.0011C37.2405 80.0011 34.9999 77.7606 34.9999 75.0017C34.9999 72.5839 36.7199 70.5656 39.0008 70.1011V64.001C39.0008 63.9943 39.0008 63.9875 39.0008 63.9808C33.1308 63.7396 27.8015 61.3857 23.7546 57.6608C23.749 57.6664 23.7434 57.6732 23.7367 57.6788L19.4239 61.9927C20.7085 63.9337 20.4964 66.5759 18.7877 68.2858C16.8355 70.2368 13.6671 70.2368 11.7161 68.2858C9.76497 66.3347 9.76497 63.1662 11.7161 61.214C13.4259 59.5053 16.0681 59.2933 18.0091 60.5779L22.323 56.2651C22.3286 56.2584 22.3353 56.2528 22.341 56.2472C18.6161 52.2003 16.2622 46.871 16.021 41.001C16.0143 41.001 16.0075 41.001 16.0008 41.001H9.90072ZM8.00013 40.0013C8.00013 38.3453 6.65603 37.0012 5.00003 37.0012C3.34515 37.0012 1.99993 38.3453 1.99993 40.0013C1.99993 41.6573 3.34515 43.0014 5.00003 43.0014C6.65603 43.0014 8.00013 41.6573 8.00013 40.0013ZM17.3729 17.3737C18.5443 16.2035 18.5443 14.3019 17.3729 13.1317C16.2027 11.9604 14.301 11.9604 13.1308 13.1317C11.9595 14.3019 11.9595 16.2035 13.1308 17.3737C14.301 18.545 16.2027 18.545 17.3729 17.3737ZM40.0005 8.00099C41.6565 8.00099 43.0006 6.65688 43.0006 5.00088C43.0006 3.346 41.6565 2.00077 40.0005 2.00077C38.3445 2.00077 37.0004 3.346 37.0004 5.00088C37.0004 6.65688 38.3445 8.00099 40.0005 8.00099ZM62.6281 17.3737C63.7982 18.545 65.7 18.545 66.8702 17.3737C68.0415 16.2035 68.0415 14.3019 66.8702 13.1317C65.7 11.9604 63.7982 11.9604 62.6281 13.1317C61.4567 14.3019 61.4567 16.2035 62.6281 17.3737ZM72.0009 40.0013C72.0009 41.6573 73.345 43.0014 75.001 43.0014C76.6559 43.0014 78.0011 41.6573 78.0011 40.0013C78.0011 38.3453 76.6559 37.0012 75.001 37.0012C73.345 37.0012 72.0009 38.3453 72.0009 40.0013ZM62.6281 62.6289C61.4567 63.7991 61.4567 65.7007 62.6281 66.8709C63.7982 68.0422 65.7 68.0422 66.8702 66.8709C68.0415 65.7007 68.0415 63.7991 66.8702 62.6289C65.7 61.4576 63.7982 61.4576 62.6281 62.6289ZM40.0005 72.0016C38.3445 72.0016 37.0004 73.3457 37.0004 75.0017C37.0004 76.6566 38.3445 78.0018 40.0005 78.0018C41.6565 78.0018 43.0006 76.6566 43.0006 75.0017C43.0006 73.3457 41.6565 72.0016 40.0005 72.0016ZM17.3729 62.6289C16.2027 61.4576 14.301 61.4576 13.1308 62.6289C11.9595 63.7991 11.9595 65.7007 13.1308 66.8709C14.301 68.0422 16.2027 68.0422 17.3729 66.8709C18.5443 65.7007 18.5443 63.7991 17.3729 62.6289ZM40.0005 18.0009C27.8587 18.0009 18.0001 27.8595 18.0001 40.0013C18.0001 52.1431 27.8587 62.0017 40.0005 62.0017C52.1423 62.0017 62.0009 52.1431 62.0009 40.0013C62.0009 27.8595 52.1423 18.0009 40.0005 18.0009ZM40.0005 23.0015C44.4154 23.0015 48 26.5962 48 31.0246C48 35.4541 44.4154 39.0488 40.0005 39.0488C35.5856 39.0488 32.001 35.4541 32.001 31.0246C32.001 26.5962 35.5856 23.0015 40.0005 23.0015ZM40.0005 25.0008C36.6885 25.0008 34.0003 27.7014 34.0003 31.0246C34.0003 34.3489 36.6885 37.0495 40.0005 37.0495C43.3125 37.0495 46.0007 34.3489 46.0007 31.0246C46.0007 27.7014 43.3125 25.0008 40.0005 25.0008ZM40.0005 41.8582C44.3447 41.8582 48.1885 43.1899 50.576 45.1937C52.3195 46.6556 53.3102 48.4799 53.3102 50.4298C53.3102 52.3798 52.3195 54.2041 50.576 55.666C48.1885 57.6698 44.3447 59.0016 40.0005 59.0016C35.6563 59.0016 31.8125 57.6698 29.425 55.666C27.6814 54.2041 26.6908 52.3798 26.6908 50.4298C26.6908 48.4799 27.6814 46.6556 29.425 45.1937C31.8125 43.1899 35.6563 41.8582 40.0005 41.8582ZM40.0005 43.8586C36.1915 43.8586 32.8032 44.9693 30.7096 46.7251C29.4653 47.7697 28.6912 49.0375 28.6912 50.4298C28.6912 51.8222 29.4653 53.09 30.7096 54.1345C32.8032 55.8904 36.1915 57.0011 40.0005 57.0011C43.8095 57.0011 47.1978 55.8904 49.2914 54.1345C50.5356 53.09 51.3098 51.8222 51.3098 50.4298C51.3098 49.0375 50.5356 47.7697 49.2914 46.7251C47.1978 44.9693 43.8095 43.8586 40.0005 43.8586Z" fill="url(#paint0_linear_2031_774)"/></g></g></g></symbol><symbol id="icon-wine" viewBox="0 0 80 80"><g fill="none"><g clip-path="url(#clip0_2033_784)"><mask id="mask0_2033_784" style="mask-type:luminance" maskUnits="userSpaceOnUse" x="0" y="0" width="81" height="81"><path d="M80.0002 0H0V80.0003H80.0002V0Z" fill="white"/></mask><g mask="url(#mask0_2033_784)"><path fill-rule="evenodd" clip-rule="evenodd" d="M67.5022 68.0003H78.9996C79.5567 68.0003 80.0024 68.4481 80.0024 69.0003V71.7015C80.0024 76.2848 76.2848 80.0004 71.7061 80.0004H8.2929C3.71419 80.0004 -0.00341797 76.2848 -0.00341797 71.7015V69.0003C-0.00341797 68.4481 0.442287 68.0003 0.999431 68.0003H21.9987V55.9514C16.9439 55.4491 13.0033 51.1858 13.0033 46.0002V37.0002C13.0033 36.448 13.449 36.0002 13.996 36.0002H31.9969C32.554 36.0002 32.9997 36.448 32.9997 37.0002V46.0002C32.9997 51.1858 29.049 55.4491 23.9942 55.9514V68.0003H44.4971C41.7823 59.1569 41.4582 50.0336 42.6839 40.7291C42.8967 39.1336 43.7476 37.5391 44.872 35.5169C47.2627 31.1968 50.7979 24.6846 50.3624 10.7057C50.3624 10.6957 50.3624 10.6846 50.3624 10.6746V3.00008C50.3624 2.44786 50.8081 2.00012 51.3652 2.00012H60.6341C61.1912 2.00012 61.6369 2.44786 61.6369 3.00008V10.6746C61.6369 10.6846 61.6369 10.6957 61.6369 10.7057C61.2013 24.6846 64.7367 31.1968 67.1274 35.5169C68.2417 37.5391 69.1026 39.1336 69.3153 40.7291C70.541 50.0336 70.217 59.1569 67.5022 68.0003ZM45.8546 70.0003H2.00228V71.7025C2.00228 75.1803 4.81835 78.0003 8.2929 78.0003H71.7061C75.1806 78.0003 77.9967 75.1804 77.9967 71.7015V70.0003C77.9967 70.0003 66.1245 70.0003 66.1042 70.0003C66.1042 70.0003 45.8647 70.0003 45.8546 70.0003ZM23.0015 54.0003C27.4181 54.0003 31.0042 50.418 31.0042 46.0002V38.0002H14.9989V46.0002C14.9989 50.418 18.5849 54.0003 23.0015 54.0003ZM65.4052 68.0003C68.2112 59.2502 68.5556 50.2125 67.3299 40.9913C67.1476 39.6047 66.3474 38.2413 65.3749 36.4847C62.9133 32.0224 59.2463 25.3157 59.6312 11.0001H52.3782C52.753 25.3157 49.086 32.0224 46.6245 36.4847C45.652 38.2413 44.8517 39.6047 44.6694 40.9913C43.4436 50.2125 43.7881 59.2502 46.5941 68.0003H65.4052ZM52.368 9.00013H59.6312V4.00011H52.368V9.00013ZM64.2504 41.5002V56.0002C64.2504 56.5525 63.7946 57.0003 63.2475 57.0003H48.8631C48.3161 57.0003 47.8603 56.5525 47.8603 56.0002V41.5002C47.8603 40.948 48.3161 40.5002 48.8631 40.5002H63.2475C63.7946 40.5002 64.2504 40.948 64.2504 41.5002ZM62.2447 42.5003H49.866V55.0003H62.2447V42.5003Z" fill="url(#paint0_linear_2033_784)"/></g></g></g></symbol></svg>